<?xml version="1.0" standalone="no"?>
<!DOCTYPE svg PUBLIC "-//W3C//DTD SVG 20010904//EN"
 "http://www.w3.org/TR/2001/REC-SVG-20010904/DTD/svg10.dtd">
<svg version="1.0" xmlns="http://www.w3.org/2000/svg"
 width="512.000000pt" height="512.000000pt" viewBox="0 0 512.000000 512.000000"
 preserveAspectRatio="xMidYMid meet">
<metadata>
Created by potrace 1.14, written by Peter Selinger 2001-2017
</metadata>
<g transform="translate(0.000000,512.000000) scale(0.100000,-0.100000)"
fill="#000000" stroke="none">
<path d="M2300 5094 c-398 -40 -811 -186 -1151 -406 -184 -119 -443 -360 -600
-558 -271 -342 -452 -778 -515 -1240 -21 -151 -23 -470 -5 -615 47 -381 174
-750 361 -1056 26 -41 91 -131 146 -198 54 -68 104 -133 111 -145 18 -32 194
-200 291 -278 46 -37 136 -102 200 -145 64 -43 124 -84 132 -92 23 -22 283
-145 395 -186 128 -48 327 -99 480 -125 516 -86 1064 -6 1540 225 306 148 672
444 867 700 275 362 422 678 503 1080 30 146 55 382 55 507 0 194 -45 507 -99
694 -62 216 -165 464 -229 553 -17 24 -29 47 -26 52 3 5 1 9 -3 9 -5 0 -40 48
-78 108 -122 190 -256 341 -435 494 -58 49 -118 102 -135 118 -49 45 -223 155
-356 224 -446 233 -954 331 -1449 280z m-144 -1049 c16 -8 39 -15 52 -15 12 0
22 -4 22 -9 0 -11 53 -23 110 -26 85 -3 170 -18 181 -31 6 -8 20 -14 30 -14
11 0 19 -4 19 -9 0 -5 8 -12 18 -15 25 -8 116 -96 132 -129 16 -31 20 -131 6
-144 -5 -4 -11 -2 -13 5 -3 6 -11 12 -19 12 -8 0 -14 7 -14 15 0 8 -7 15 -15
15 -8 0 -15 7 -15 15 0 11 -11 15 -40 15 -37 0 -40 -2 -40 -29 0 -16 12 -52
27 -81 l27 -52 -32 -29 c-30 -28 -38 -49 -33 -93 2 -22 34 -56 51 -56 6 0 18
-7 26 -15 9 -8 28 -15 44 -15 16 0 30 -4 32 -9 3 -10 133 -28 273 -38 54 -4
77 -11 103 -31 36 -28 62 -79 62 -123 0 -34 -12 -37 -40 -9 -11 11 -24 20 -30
20 -5 0 -10 4 -10 10 0 5 -16 12 -36 16 -28 5 -39 2 -55 -14 -23 -25 -25 -65
-4 -86 8 -8 15 -24 15 -35 0 -11 4 -22 9 -25 13 -8 21 -62 14 -97 -5 -25 -10
-30 -30 -27 -15 2 -31 15 -41 32 -25 44 -64 86 -79 86 -7 0 -13 5 -13 10 0 6
-8 10 -19 10 -23 0 -71 -44 -71 -65 0 -8 -4 -15 -9 -15 -5 0 -11 -10 -15 -23
-7 -30 -55 -83 -84 -91 -30 -10 -37 12 -18 59 31 73 13 115 -48 115 -33 0 -39
-4 -49 -30 -6 -16 -15 -30 -19 -30 -4 0 -8 -10 -8 -22 -1 -30 -64 -62 -92 -47
-17 9 -26 49 -10 49 11 0 43 61 36 71 -9 15 -64 10 -70 -6 -4 -8 -12 -15 -20
-15 -8 0 -14 -4 -14 -10 0 -5 -11 -10 -25 -10 -22 0 -25 4 -25 33 0 18 5 38
11 44 18 18 7 77 -15 81 -10 2 -23 -3 -28 -12 -5 -9 -20 -16 -33 -16 -13 0
-27 -4 -30 -10 -10 -16 -39 -11 -52 9 -10 17 -8 22 22 43 26 17 35 30 35 51 0
15 -3 27 -8 27 -4 0 -16 17 -27 37 -11 21 -29 47 -41 58 -12 11 -26 30 -33 43
-13 25 -51 30 -51 7 0 -8 4 -15 10 -15 5 0 12 -11 16 -25 3 -14 10 -25 15 -25
15 0 10 -58 -7 -74 -22 -23 -32 -20 -39 13 -6 30 -91 128 -102 118 -10 -10 7
-57 28 -78 11 -11 21 -30 22 -42 2 -51 -4 -77 -17 -77 -8 0 -17 -6 -19 -12 -9
-21 -27 13 -27 49 0 31 -25 73 -42 73 -5 0 -8 -7 -8 -16 0 -9 -8 -29 -17 -45
-21 -35 -65 -38 -72 -4 -2 11 -9 24 -17 28 -8 4 -14 12 -14 17 0 14 -33 50
-46 50 -6 0 -26 7 -43 16 -35 17 -92 14 -117 -7 -8 -6 -14 -29 -14 -51 0 -45
-26 -97 -50 -99 -42 -3 -59 6 -42 23 24 24 14 66 -24 94 l-36 28 -18 -23 c-15
-21 -15 -27 -4 -50 12 -25 9 -71 -5 -71 -3 0 -15 -3 -27 -6 -12 -3 -27 0 -35
8 -43 41 -100 60 -114 39 -3 -5 -19 -12 -35 -16 -21 -5 -30 -13 -30 -27 0 -23
37 -57 62 -58 9 0 18 -5 20 -11 2 -6 51 -12 118 -15 143 -6 152 -8 189 -40 27
-22 31 -32 31 -75 0 -58 -17 -65 -45 -16 -21 36 -33 47 -56 47 -22 0 -59 -34
-59 -55 0 -19 38 -54 60 -55 8 0 24 -7 34 -15 26 -20 116 -20 142 0 13 10 44
14 96 15 87 0 115 -15 145 -79 16 -31 15 -35 -1 -47 -16 -11 -21 -9 -43 17
-43 50 -133 36 -133 -21 0 -49 49 -65 200 -65 162 0 170 -5 170 -117 0 -42 -4
-79 -9 -82 -19 -12 -41 7 -47 42 -8 47 -30 72 -62 72 -39 0 -51 -27 -52 -111
0 -69 -2 -78 -23 -92 -29 -19 -57 -2 -57 36 0 29 -23 57 -48 57 -21 0 -55 -22
-97 -61 -17 -16 -42 -30 -55 -31 -24 -3 -25 -1 -25 59 0 83 -16 98 -47 44 -12
-22 -28 -41 -34 -41 -17 0 -34 23 -34 48 0 68 -50 84 -70 22 -15 -46 -56 -81
-66 -55 -7 17 -34 21 -34 5 0 -25 41 -50 81 -50 51 0 119 -48 119 -85 0 -13 5
-27 10 -30 17 -10 11 -67 -7 -81 -26 -20 -30 -17 -37 21 -4 19 -11 35 -16 35
-6 0 -10 6 -10 13 -1 15 -68 50 -81 41 -7 -4 -8 -26 -4 -55 8 -57 -2 -62 -43
-24 -15 14 -29 25 -33 25 -14 0 -57 -60 -64 -89 -3 -17 -11 -33 -16 -36 -5 -4
-9 -13 -9 -21 0 -9 -6 -21 -12 -29 -7 -7 -21 -22 -30 -34 -36 -43 -61 -10 -34
45 18 39 22 145 6 175 -15 27 -50 25 -51 -3 -1 -27 -28 -77 -50 -91 -9 -6 -24
-7 -33 -4 -17 7 -22 52 -6 62 13 8 13 55 -1 111 -13 50 -21 58 -49 49 -17 -5
-20 -15 -20 -60 0 -53 -22 -112 -47 -128 -7 -4 -13 -13 -13 -19 0 -18 -33 -37
-62 -38 -33 0 -34 10 -7 70 25 55 19 90 -16 90 -14 0 -25 -4 -25 -10 0 -5 -4
-10 -10 -10 -6 0 -19 -9 -30 -20 -25 -25 -46 -25 -67 0 -10 11 -25 20 -35 20
-9 0 -21 6 -25 13 -4 6 -16 18 -25 25 -14 11 -20 10 -37 -5 -16 -13 -21 -29
-21 -70 0 -60 -11 -67 -53 -30 -25 21 -27 29 -37 162 -24 346 61 824 148 825
12 0 23 7 57 38 7 6 18 12 24 12 16 0 80 34 81 43 0 11 39 47 50 47 6 0 10 6
10 14 0 8 3 16 8 18 4 2 25 25 47 52 22 27 68 78 103 112 34 35 62 68 62 73 0
6 4 11 9 11 5 0 37 27 71 60 34 33 75 67 91 76 16 8 29 19 29 24 0 6 7 10 15
10 8 0 15 4 15 8 0 5 25 19 55 32 30 13 55 27 55 32 0 4 8 8 18 8 10 0 27 7
38 15 10 8 29 15 42 15 12 0 34 7 47 16 17 11 54 17 127 19 57 1 116 8 131 14
16 6 37 11 47 11 10 0 21 4 24 9 3 5 35 12 71 16 36 3 67 11 70 16 10 16 199
11 231 -6z m-77 -1322 c-1 -68 -1 -68 -11 -26 -10 37 -5 93 7 93 3 0 4 -30 4
-67z m-171 -532 c29 -4 58 -13 64 -19 7 -7 22 -12 34 -12 12 0 24 -7 28 -15 3
-8 14 -15 25 -15 11 0 55 -35 100 -80 45 -44 84 -80 89 -80 4 0 20 -14 36 -30
16 -17 34 -30 40 -30 6 -1 22 -14 36 -30 13 -17 27 -30 32 -30 4 0 33 -18 64
-40 32 -22 63 -40 71 -40 7 0 13 -4 13 -10 0 -5 11 -12 24 -16 14 -3 27 -12
30 -20 3 -8 17 -14 31 -14 14 0 25 -4 25 -9 0 -5 14 -12 30 -16 17 -4 30 -10
30 -15 0 -4 18 -10 40 -14 22 -3 40 -11 40 -16 0 -6 12 -10 26 -10 14 0 38 -6
52 -14 31 -16 96 -34 167 -46 28 -5 91 -17 140 -26 147 -27 468 -18 510 15 5
5 28 11 50 14 54 7 124 26 157 43 14 8 38 14 51 14 14 0 28 4 31 9 3 5 22 12
41 15 19 4 35 11 35 16 0 4 14 11 30 15 17 4 30 11 30 16 0 5 11 9 24 9 13 0
29 7 36 15 7 8 18 15 25 15 7 0 18 7 25 15 7 8 21 15 31 15 11 0 19 4 19 9 0
5 12 12 26 15 14 4 38 18 52 31 15 14 31 25 35 25 5 0 26 13 47 30 21 16 42
30 47 30 4 0 19 10 33 23 14 12 42 33 63 46 20 12 37 27 37 32 0 5 7 9 15 9 8
0 15 7 15 15 0 8 7 15 15 15 8 0 15 5 15 10 0 6 4 10 10 10 6 0 6 -8 1 -22 -5
-13 -21 -63 -36 -113 -15 -49 -41 -125 -57 -168 -29 -75 -31 -79 -57 -72 -67
16 -80 16 -107 -1 -56 -36 -94 -77 -94 -101 0 -19 -5 -23 -32 -23 -18 0 -51 7
-73 14 -53 19 -89 10 -132 -30 -37 -35 -57 -42 -68 -24 -8 13 -102 13 -110 1
-3 -5 -19 -12 -35 -16 -16 -4 -46 -15 -67 -25 l-38 -18 28 -11 c15 -6 27 -15
27 -20 0 -5 37 -12 83 -15 453 -28 482 -31 479 -46 -2 -8 -25 -44 -50 -79 -26
-36 -50 -69 -54 -75 -4 -6 -28 -10 -55 -11 -36 0 -48 -4 -48 -15 0 -9 11 -16
28 -18 33 -4 34 -12 4 -40 -20 -18 -27 -20 -62 -11 -22 6 -62 14 -90 18 -27 4
-66 12 -85 18 -19 6 -71 19 -115 28 -44 9 -100 21 -125 27 -25 6 -70 13 -100
16 -30 2 -61 9 -68 15 -7 5 -46 12 -88 15 -41 2 -77 9 -80 13 -3 5 -19 9 -36
9 -23 0 -29 -4 -24 -16 3 -9 6 -19 6 -24 0 -5 14 -11 30 -15 17 -4 30 -11 30
-16 0 -5 8 -9 19 -9 10 0 24 -7 31 -15 7 -8 20 -15 30 -15 10 0 23 -7 30 -15
7 -8 21 -15 31 -15 11 0 19 -4 19 -9 0 -5 14 -12 30 -16 17 -4 30 -10 30 -15
0 -5 14 -11 30 -15 17 -4 30 -11 30 -16 0 -5 10 -9 23 -9 12 0 31 -7 41 -15
11 -8 28 -15 37 -15 10 0 24 -6 31 -14 8 -7 27 -16 43 -19 66 -13 125 -32 125
-39 0 -5 10 -8 22 -8 19 0 18 -3 -14 -34 -32 -31 -38 -33 -74 -26 -21 4 -52
13 -69 18 -83 28 -132 42 -147 42 -10 0 -18 4 -18 9 0 5 -15 12 -32 16 -18 3
-42 10 -53 15 -11 4 -40 14 -65 20 -25 6 -64 16 -87 22 -24 6 -43 15 -43 20 0
4 -11 8 -24 8 -13 0 -40 7 -59 15 -20 8 -55 15 -77 15 -22 0 -40 5 -40 10 0
14 -36 13 -59 -2 -15 -9 -22 -8 -36 5 -9 9 -23 17 -31 17 -8 0 -14 5 -14 10 0
6 -8 10 -17 10 -17 -1 -17 -1 0 -14 9 -7 17 -17 17 -22 0 -5 10 -14 22 -19 12
-6 26 -19 32 -29 14 -25 44 -56 54 -56 4 0 22 -13 40 -30 18 -16 36 -30 38
-30 5 0 20 -13 86 -77 10 -9 16 -18 13 -21 -6 -6 -145 61 -145 71 0 4 -7 7
-16 7 -9 0 -36 14 -61 30 -24 17 -48 30 -54 30 -5 0 -9 5 -9 10 0 6 -6 10 -13
10 -8 0 -33 14 -55 30 -23 17 -47 30 -52 30 -6 0 -13 7 -16 15 -4 8 -10 15
-16 15 -5 0 -15 6 -22 13 -8 6 -24 19 -36 27 -12 8 -36 27 -54 42 -17 15 -36
28 -41 28 -6 0 -22 11 -37 25 -33 31 -38 31 -38 4 0 -12 11 -32 25 -45 14 -13
25 -28 25 -34 0 -5 5 -10 11 -10 14 0 39 -25 39 -39 0 -6 3 -11 8 -11 4 0 23
-15 43 -33 63 -56 101 -87 106 -87 3 0 16 -11 29 -25 13 -14 28 -25 33 -25 6
0 24 -14 41 -30 17 -17 35 -30 40 -30 6 0 10 -4 10 -10 0 -5 4 -10 10 -10 9 0
60 -47 60 -55 0 -14 -83 15 -100 34 -3 3 -25 16 -50 29 -55 28 -80 43 -98 60
-7 6 -18 12 -24 12 -6 0 -21 11 -34 25 -13 14 -26 25 -30 25 -7 0 -83 57 -99
74 -26 28 -51 40 -98 48 -29 5 -66 11 -84 14 -22 4 -37 1 -48 -10 -25 -24 -41
-19 -65 19 -25 40 -49 40 -86 0 -11 -12 -33 -30 -48 -40 -25 -17 -27 -17 -46
0 -25 23 -25 24 5 59 34 40 33 87 -2 121 -33 30 -73 32 -98 5 -14 -16 -16 -23
-7 -32 16 -16 15 -46 -3 -64 -15 -15 -39 -7 -73 24 -15 13 -72 17 -72 4 0 -10
56 -52 69 -52 5 0 11 -3 13 -7 2 -5 32 -23 68 -41 79 -39 113 -95 78 -130 -18
-18 -28 -14 -28 11 0 31 -30 57 -66 60 -28 2 -29 1 -27 -41 1 -23 9 -49 17
-58 9 -8 16 -22 16 -30 0 -8 5 -14 10 -14 6 0 10 -6 10 -12 1 -32 120 -137
195 -172 22 -11 52 -25 67 -33 14 -7 33 -13 42 -13 9 0 16 -4 16 -10 0 -5 6
-10 14 -10 7 0 26 -17 42 -37 62 -81 50 -77 249 -85 193 -7 242 -13 263 -34 8
-8 37 -14 70 -15 l57 -1 -45 -14 c-168 -54 -453 -91 -532 -71 -21 6 -38 14
-38 18 0 4 -13 10 -30 14 -16 4 -30 11 -30 16 0 5 -9 9 -20 9 -19 0 -131 54
-157 75 -7 5 -27 21 -44 35 -40 31 -52 43 -113 114 -43 50 -86 73 -86 46 0
-25 -43 -6 -85 37 -44 44 -115 142 -115 157 0 12 -53 61 -74 69 -19 7 -56 -20
-56 -41 0 -5 25 -37 55 -72 54 -62 55 -65 55 -126 0 -60 1 -63 32 -78 17 -9
36 -16 41 -16 18 0 57 -43 57 -62 0 -15 -4 -17 -18 -9 -17 9 -63 15 -94 13
-24 -3 -33 -41 -14 -60 17 -17 135 -51 182 -51 17 -1 48 -8 67 -16 20 -8 50
-15 66 -15 16 0 32 -4 36 -9 3 -5 19 -12 36 -16 17 -4 28 -12 26 -18 -3 -7
-11 -10 -18 -8 -8 3 -25 5 -39 7 -14 1 -32 5 -41 8 -9 4 -20 6 -25 5 -5 -1
-16 0 -24 4 -8 3 -51 13 -95 22 -184 40 -554 187 -507 203 36 12 12 170 -28
192 -34 18 -103 -27 -128 -83 l-12 -29 -53 38 c-174 123 -383 326 -505 489
-69 94 -142 210 -142 228 0 3 26 7 58 10 73 6 162 27 162 38 0 5 8 9 18 9 9 0
30 7 46 15 15 8 37 15 47 15 11 0 22 7 25 15 4 8 12 15 20 15 8 0 14 4 14 9 0
5 10 13 22 17 12 3 33 17 47 30 14 13 34 27 44 30 9 3 17 10 17 15 0 5 8 9 19
9 10 0 24 6 30 14 6 8 26 16 44 20 162 28 159 27 220 88 31 32 57 63 57 68 0
6 4 10 9 10 5 0 19 32 32 70 12 39 26 70 30 70 4 0 10 14 14 30 4 17 11 30 16
30 5 0 9 6 9 14 0 19 64 66 92 67 13 0 32 4 43 9 11 5 27 6 35 3 8 -3 39 -8
68 -12z m-1447 -78 c16 -10 32 -26 35 -37 4 -10 17 -29 30 -41 13 -12 24 -26
24 -31 0 -5 14 -15 30 -22 23 -11 30 -20 30 -42 0 -32 -30 -56 -56 -46 -8 3
-26 -2 -40 -10 -13 -9 -26 -15 -28 -13 -6 6 -66 231 -66 247 0 16 6 15 41 -5z
m189 -312 c36 -7 67 -16 68 -22 2 -5 10 -9 18 -9 8 0 14 -6 14 -14 0 -8 4 -16
9 -18 5 -1 13 -15 16 -30 6 -22 4 -28 -9 -28 -9 0 -16 5 -16 11 0 17 -32 38
-57 39 -26 0 -39 -34 -29 -75 9 -36 -3 -72 -25 -78 -16 -4 -25 5 -47 51 -15
31 -29 59 -33 62 -8 8 -49 107 -49 120 0 13 26 11 140 -9z"/>
<path d="M2970 1200 c0 -5 5 -10 11 -10 5 0 7 5 4 10 -3 6 -8 10 -11 10 -2 0
-4 -4 -4 -10z"/>
<path d="M3008 1163 c6 -2 18 -2 25 0 6 3 1 5 -13 5 -14 0 -19 -2 -12 -5z"/>
<path d="M1710 851 c0 -30 42 -91 63 -91 37 0 11 56 -45 99 -16 12 -18 11 -18
-8z"/>
</g>
</svg>
